<?xml version="1.0" standalone="no"?><!DOCTYPE svg PUBLIC "-//W3C//DTD SVG 1.1//EN" "http://www.w3.org/Graphics/SVG/1.1/DTD/svg11.dtd"><svg t="1610517772487" class="icon" viewBox="0 0 1024 1024" version="1.1" xmlns="http://www.w3.org/2000/svg" p-id="1402" width="128" height="128" xmlns:xlink="http://www.w3.org/1999/xlink"><defs><style type="text/css"></style></defs><path d="M832 738.56V320a128 128 0 0 0-128-128H128a128 128 0 0 0-128 128v576a128 128 0 0 0 128 128h576a128 128 0 0 0 128-128v-157.44z m-92.8 128a64 64 0 0 1-64 64H156.16a64 64 0 0 1-64-64V349.44a64 64 0 0 1 64-64h517.76a64 64 0 0 1 64 64v390.4z" p-id="1403"></path><path d="M1024 704a128 128 0 0 1-128 128h-64v-93.44h36.48a64 64 0 0 0 64-64V156.8a64 64 0 0 0-64-64H349.44a64 64 0 0 0-64 64V192H192V128a128 128 0 0 1 128-128h576a128 128 0 0 1 128 128z" p-id="1404"></path><path d="M221.44 448m48 0l288 0q48 0 48 48l0 0q0 48-48 48l-288 0q-48 0-48-48l0 0q0-48 48-48Z" p-id="1405"></path><path d="M221.44 672m48 0l288 0q48 0 48 48l0 0q0 48-48 48l-288 0q-48 0-48-48l0 0q0-48 48-48Z" p-id="1406"></path></svg>